<mxfile host="app.diagrams.net" agent="Mozilla/5.0 (Windows NT 10.0; Win64; x64) AppleWebKit/537.36 (KHTML, like Gecko) Chrome/131.0.0.0 Safari/537.36" version="26.0.5">
  <diagram id="R2lEEEUBdFMjLlhIrx00" name="Page-1">
    <mxGraphModel dx="1687" dy="2008" grid="1" gridSize="10" guides="1" tooltips="1" connect="1" arrows="1" fold="1" page="1" pageScale="1" pageWidth="850" pageHeight="1100" math="0" shadow="0" extFonts="Permanent Marker^https://fonts.googleapis.com/css?family=Permanent+Marker">
      <root>
        <mxCell id="0" />
        <mxCell id="1" parent="0" />
        <mxCell id="9MebMyxqIFHPS86as1PU-1" value="uat" style="rounded=1;whiteSpace=wrap;html=1;" vertex="1" parent="1">
          <mxGeometry x="390" y="20" width="120" height="60" as="geometry" />
        </mxCell>
        <mxCell id="9MebMyxqIFHPS86as1PU-2" value="tara" style="rounded=1;whiteSpace=wrap;html=1;" vertex="1" parent="1">
          <mxGeometry x="40" y="20" width="120" height="60" as="geometry" />
        </mxCell>
        <mxCell id="9MebMyxqIFHPS86as1PU-3" value="judet" style="rounded=1;whiteSpace=wrap;html=1;" vertex="1" parent="1">
          <mxGeometry x="230" y="20" width="120" height="60" as="geometry" />
        </mxCell>
        <mxCell id="9MebMyxqIFHPS86as1PU-4" value="market" style="rounded=1;whiteSpace=wrap;html=1;" vertex="1" parent="1">
          <mxGeometry x="590" y="30" width="120" height="60" as="geometry" />
        </mxCell>
        <mxCell id="9MebMyxqIFHPS86as1PU-5" value="tip_market" style="rounded=1;whiteSpace=wrap;html=1;" vertex="1" parent="1">
          <mxGeometry x="590" y="-120" width="120" height="60" as="geometry" />
        </mxCell>
        <mxCell id="9MebMyxqIFHPS86as1PU-6" value="bon" style="rounded=1;whiteSpace=wrap;html=1;" vertex="1" parent="1">
          <mxGeometry x="590" y="160" width="120" height="60" as="geometry" />
        </mxCell>
        <mxCell id="9MebMyxqIFHPS86as1PU-7" value="clienti" style="rounded=1;whiteSpace=wrap;html=1;" vertex="1" parent="1">
          <mxGeometry x="230" y="160" width="120" height="60" as="geometry" />
        </mxCell>
        <mxCell id="9MebMyxqIFHPS86as1PU-8" value="persoane" style="rounded=1;whiteSpace=wrap;html=1;" vertex="1" parent="1">
          <mxGeometry x="40" y="160" width="120" height="60" as="geometry" />
        </mxCell>
        <mxCell id="9MebMyxqIFHPS86as1PU-9" value="stoc" style="rounded=1;whiteSpace=wrap;html=1;" vertex="1" parent="1">
          <mxGeometry x="965" y="150" width="120" height="60" as="geometry" />
        </mxCell>
        <mxCell id="9MebMyxqIFHPS86as1PU-10" value="produse" style="rounded=1;whiteSpace=wrap;html=1;" vertex="1" parent="1">
          <mxGeometry x="965" y="30" width="120" height="60" as="geometry" />
        </mxCell>
        <mxCell id="9MebMyxqIFHPS86as1PU-11" value="tip_produs" style="rounded=1;whiteSpace=wrap;html=1;" vertex="1" parent="1">
          <mxGeometry x="1155" y="40" width="120" height="60" as="geometry" />
        </mxCell>
        <mxCell id="9MebMyxqIFHPS86as1PU-12" value="tip_furnizor" style="rounded=1;whiteSpace=wrap;html=1;" vertex="1" parent="1">
          <mxGeometry x="1145" y="310" width="120" height="60" as="geometry" />
        </mxCell>
        <mxCell id="9MebMyxqIFHPS86as1PU-13" value="furnizor" style="rounded=1;whiteSpace=wrap;html=1;" vertex="1" parent="1">
          <mxGeometry x="965" y="310" width="120" height="60" as="geometry" />
        </mxCell>
        <mxCell id="9MebMyxqIFHPS86as1PU-14" value="" style="edgeStyle=entityRelationEdgeStyle;fontSize=12;html=1;endArrow=ERoneToMany;rounded=0;exitX=1;exitY=0.5;exitDx=0;exitDy=0;entryX=0;entryY=0.5;entryDx=0;entryDy=0;" edge="1" parent="1" source="9MebMyxqIFHPS86as1PU-3" target="9MebMyxqIFHPS86as1PU-1">
          <mxGeometry width="100" height="100" relative="1" as="geometry">
            <mxPoint x="520" y="120" as="sourcePoint" />
            <mxPoint x="620" y="20" as="targetPoint" />
          </mxGeometry>
        </mxCell>
        <mxCell id="9MebMyxqIFHPS86as1PU-15" value="" style="edgeStyle=entityRelationEdgeStyle;fontSize=12;html=1;endArrow=ERoneToMany;rounded=0;exitX=1;exitY=0.5;exitDx=0;exitDy=0;entryX=0;entryY=0.5;entryDx=0;entryDy=0;" edge="1" parent="1" source="9MebMyxqIFHPS86as1PU-2" target="9MebMyxqIFHPS86as1PU-3">
          <mxGeometry width="100" height="100" relative="1" as="geometry">
            <mxPoint x="430" y="230" as="sourcePoint" />
            <mxPoint x="530" y="130" as="targetPoint" />
          </mxGeometry>
        </mxCell>
        <mxCell id="9MebMyxqIFHPS86as1PU-19" value="" style="edgeStyle=entityRelationEdgeStyle;fontSize=12;html=1;endArrow=ERoneToMany;rounded=0;exitX=1;exitY=0.5;exitDx=0;exitDy=0;entryX=0;entryY=0.5;entryDx=0;entryDy=0;" edge="1" parent="1" source="9MebMyxqIFHPS86as1PU-1" target="9MebMyxqIFHPS86as1PU-4">
          <mxGeometry width="100" height="100" relative="1" as="geometry">
            <mxPoint x="430" y="230" as="sourcePoint" />
            <mxPoint x="530" y="130" as="targetPoint" />
          </mxGeometry>
        </mxCell>
        <mxCell id="9MebMyxqIFHPS86as1PU-20" value="" style="fontSize=12;html=1;endArrow=ERoneToMany;rounded=0;exitX=0.5;exitY=1;exitDx=0;exitDy=0;entryX=0.5;entryY=0;entryDx=0;entryDy=0;" edge="1" parent="1" source="9MebMyxqIFHPS86as1PU-5" target="9MebMyxqIFHPS86as1PU-4">
          <mxGeometry width="100" height="100" relative="1" as="geometry">
            <mxPoint x="600" y="230" as="sourcePoint" />
            <mxPoint x="700" y="130" as="targetPoint" />
          </mxGeometry>
        </mxCell>
        <mxCell id="9MebMyxqIFHPS86as1PU-21" value="" style="edgeStyle=entityRelationEdgeStyle;fontSize=12;html=1;endArrow=ERmandOne;startArrow=ERmandOne;rounded=0;entryX=0;entryY=0.5;entryDx=0;entryDy=0;exitX=1;exitY=0.5;exitDx=0;exitDy=0;" edge="1" parent="1" source="9MebMyxqIFHPS86as1PU-8" target="9MebMyxqIFHPS86as1PU-7">
          <mxGeometry width="100" height="100" relative="1" as="geometry">
            <mxPoint x="115" y="260" as="sourcePoint" />
            <mxPoint x="215" y="160" as="targetPoint" />
          </mxGeometry>
        </mxCell>
        <mxCell id="9MebMyxqIFHPS86as1PU-28" value="clienti_vanzari" style="rounded=1;whiteSpace=wrap;html=1;" vertex="1" parent="1">
          <mxGeometry x="425" y="220" width="120" height="60" as="geometry" />
        </mxCell>
        <mxCell id="9MebMyxqIFHPS86as1PU-29" value="" style="fontSize=12;html=1;endArrow=ERoneToMany;rounded=0;exitX=0;exitY=0.5;exitDx=0;exitDy=0;entryX=1;entryY=0.5;entryDx=0;entryDy=0;" edge="1" parent="1" source="9MebMyxqIFHPS86as1PU-6" target="9MebMyxqIFHPS86as1PU-28">
          <mxGeometry width="100" height="100" relative="1" as="geometry">
            <mxPoint x="440" y="260" as="sourcePoint" />
            <mxPoint x="540" y="160" as="targetPoint" />
          </mxGeometry>
        </mxCell>
        <mxCell id="9MebMyxqIFHPS86as1PU-30" value="" style="fontSize=12;html=1;endArrow=ERoneToMany;rounded=0;exitX=1;exitY=0.5;exitDx=0;exitDy=0;entryX=0;entryY=0.5;entryDx=0;entryDy=0;" edge="1" parent="1" source="9MebMyxqIFHPS86as1PU-7" target="9MebMyxqIFHPS86as1PU-28">
          <mxGeometry width="100" height="100" relative="1" as="geometry">
            <mxPoint x="440" y="260" as="sourcePoint" />
            <mxPoint x="540" y="160" as="targetPoint" />
          </mxGeometry>
        </mxCell>
        <mxCell id="9MebMyxqIFHPS86as1PU-32" value="" style="edgeStyle=entityRelationEdgeStyle;fontSize=12;html=1;endArrow=ERoneToMany;rounded=0;exitX=0;exitY=0.5;exitDx=0;exitDy=0;entryX=1;entryY=0.5;entryDx=0;entryDy=0;" edge="1" parent="1" source="9MebMyxqIFHPS86as1PU-11" target="9MebMyxqIFHPS86as1PU-10">
          <mxGeometry width="100" height="100" relative="1" as="geometry">
            <mxPoint x="1205" y="170" as="sourcePoint" />
            <mxPoint x="1305" y="70" as="targetPoint" />
          </mxGeometry>
        </mxCell>
        <mxCell id="9MebMyxqIFHPS86as1PU-34" value="" style="edgeStyle=entityRelationEdgeStyle;fontSize=12;html=1;endArrow=ERoneToMany;rounded=0;exitX=0;exitY=0.5;exitDx=0;exitDy=0;entryX=1;entryY=0.5;entryDx=0;entryDy=0;" edge="1" parent="1" source="9MebMyxqIFHPS86as1PU-12" target="9MebMyxqIFHPS86as1PU-13">
          <mxGeometry width="100" height="100" relative="1" as="geometry">
            <mxPoint x="1280" y="250" as="sourcePoint" />
            <mxPoint x="1380" y="150" as="targetPoint" />
          </mxGeometry>
        </mxCell>
        <mxCell id="9MebMyxqIFHPS86as1PU-35" value="" style="fontSize=12;html=1;endArrow=ERoneToMany;rounded=0;exitX=0.5;exitY=1;exitDx=0;exitDy=0;entryX=0.5;entryY=0;entryDx=0;entryDy=0;" edge="1" parent="1" source="9MebMyxqIFHPS86as1PU-10" target="9MebMyxqIFHPS86as1PU-9">
          <mxGeometry width="100" height="100" relative="1" as="geometry">
            <mxPoint x="1205" y="170" as="sourcePoint" />
            <mxPoint x="1305" y="70" as="targetPoint" />
          </mxGeometry>
        </mxCell>
        <mxCell id="9MebMyxqIFHPS86as1PU-36" value="" style="fontSize=12;html=1;endArrow=ERoneToMany;rounded=0;exitX=0.5;exitY=0;exitDx=0;exitDy=0;entryX=0.5;entryY=1;entryDx=0;entryDy=0;" edge="1" parent="1" source="9MebMyxqIFHPS86as1PU-13" target="9MebMyxqIFHPS86as1PU-9">
          <mxGeometry width="100" height="100" relative="1" as="geometry">
            <mxPoint x="1205" y="170" as="sourcePoint" />
            <mxPoint x="1305" y="70" as="targetPoint" />
          </mxGeometry>
        </mxCell>
        <mxCell id="9MebMyxqIFHPS86as1PU-38" value="market_produse" style="rounded=1;whiteSpace=wrap;html=1;" vertex="1" parent="1">
          <mxGeometry x="770" y="30" width="120" height="60" as="geometry" />
        </mxCell>
        <mxCell id="9MebMyxqIFHPS86as1PU-39" value="" style="edgeStyle=entityRelationEdgeStyle;fontSize=12;html=1;endArrow=ERoneToMany;rounded=0;exitX=1;exitY=0.5;exitDx=0;exitDy=0;entryX=0;entryY=0.5;entryDx=0;entryDy=0;" edge="1" parent="1" source="9MebMyxqIFHPS86as1PU-4" target="9MebMyxqIFHPS86as1PU-38">
          <mxGeometry width="100" height="100" relative="1" as="geometry">
            <mxPoint x="620" y="220" as="sourcePoint" />
            <mxPoint x="720" y="120" as="targetPoint" />
          </mxGeometry>
        </mxCell>
        <mxCell id="9MebMyxqIFHPS86as1PU-40" value="" style="edgeStyle=entityRelationEdgeStyle;fontSize=12;html=1;endArrow=ERoneToMany;rounded=0;exitX=0;exitY=0.5;exitDx=0;exitDy=0;entryX=1;entryY=0.5;entryDx=0;entryDy=0;" edge="1" parent="1" source="9MebMyxqIFHPS86as1PU-10" target="9MebMyxqIFHPS86as1PU-38">
          <mxGeometry width="100" height="100" relative="1" as="geometry">
            <mxPoint x="620" y="220" as="sourcePoint" />
            <mxPoint x="920" y="90" as="targetPoint" />
          </mxGeometry>
        </mxCell>
        <mxCell id="9MebMyxqIFHPS86as1PU-42" value="produse_bon" style="rounded=0;whiteSpace=wrap;html=1;" vertex="1" parent="1">
          <mxGeometry x="770" y="160" width="120" height="60" as="geometry" />
        </mxCell>
        <mxCell id="9MebMyxqIFHPS86as1PU-43" value="" style="fontSize=12;html=1;endArrow=ERoneToMany;rounded=0;exitX=0.5;exitY=1;exitDx=0;exitDy=0;entryX=0.5;entryY=0;entryDx=0;entryDy=0;" edge="1" parent="1" source="9MebMyxqIFHPS86as1PU-38" target="9MebMyxqIFHPS86as1PU-42">
          <mxGeometry width="100" height="100" relative="1" as="geometry">
            <mxPoint x="840" y="250" as="sourcePoint" />
            <mxPoint x="940" y="150" as="targetPoint" />
          </mxGeometry>
        </mxCell>
        <mxCell id="9MebMyxqIFHPS86as1PU-48" value="" style="edgeStyle=entityRelationEdgeStyle;fontSize=12;html=1;endArrow=ERoneToMany;rounded=0;exitX=1;exitY=0.5;exitDx=0;exitDy=0;entryX=0;entryY=0.5;entryDx=0;entryDy=0;" edge="1" parent="1" source="9MebMyxqIFHPS86as1PU-6" target="9MebMyxqIFHPS86as1PU-42">
          <mxGeometry width="100" height="100" relative="1" as="geometry">
            <mxPoint x="840" y="250" as="sourcePoint" />
            <mxPoint x="940" y="150" as="targetPoint" />
          </mxGeometry>
        </mxCell>
      </root>
    </mxGraphModel>
  </diagram>
</mxfile>
